<svg width="20" height="20" viewBox="0 0 20 20" fill="none" xmlns="http://www.w3.org/2000/svg">
<path d="M10.0003 14.3877C10.2129 14.3877 10.391 14.3158 10.5345 14.1719C10.6782 14.0283 10.75 13.8502 10.75 13.6377V9.3877C10.75 9.1752 10.6781 8.99703 10.5343 8.8532C10.3904 8.70953 10.2122 8.6377 9.99975 8.6377C9.78708 8.6377 9.609 8.70953 9.4655 8.8532C9.32183 8.99703 9.25 9.1752 9.25 9.3877V13.6377C9.25 13.8502 9.32192 14.0283 9.46575 14.1719C9.60958 14.3158 9.78775 14.3877 10.0003 14.3877ZM10 6.92619C10.2288 6.92619 10.4207 6.84878 10.5755 6.69395C10.7303 6.53911 10.8077 6.34728 10.8077 6.11844C10.8077 5.88961 10.7303 5.69778 10.5755 5.54295C10.4207 5.38828 10.2288 5.31095 10 5.31095C9.77117 5.31095 9.57933 5.38828 9.4245 5.54295C9.26967 5.69778 9.19225 5.88961 9.19225 6.11844C9.19225 6.34728 9.26967 6.53911 9.4245 6.69395C9.57933 6.84878 9.77117 6.92619 10 6.92619ZM10.0017 19.1377C8.68775 19.1377 7.45267 18.8884 6.2965 18.3897C5.14033 17.891 4.13467 17.2143 3.2795 16.3594C2.42433 15.5046 1.74725 14.4994 1.24825 13.3437C0.749417 12.188 0.5 10.9533 0.5 9.63945C0.5 8.32545 0.749333 7.09036 1.248 5.9342C1.74667 4.77803 2.42342 3.77236 3.27825 2.9172C4.13308 2.06203 5.13833 1.38495 6.294 0.885945C7.44967 0.387112 8.68442 0.137695 9.99825 0.137695C11.3123 0.137695 12.5473 0.387028 13.7035 0.885695C14.8597 1.38436 15.8653 2.06111 16.7205 2.91595C17.5757 3.77078 18.2528 4.77603 18.7518 5.9317C19.2506 7.08736 19.5 8.32211 19.5 9.63595C19.5 10.9499 19.2507 12.185 18.752 13.3412C18.2533 14.4974 17.5766 15.503 16.7218 16.3582C15.8669 17.2134 14.8617 17.8904 13.706 18.3894C12.5503 18.8883 11.3156 19.1377 10.0017 19.1377Z" fill="#38291E"/>
</svg>
