<svg width="40" height="40" viewBox="0 0 40 40" fill="none" xmlns="http://www.w3.org/2000/svg">
<path d="M20.8475 12.346V23H19.0975V13.508L20.8335 12.346H20.8475Z" fill="#F7F4F2"/>
<mask id="mask0_3_24067" style="mask-type:alpha" maskUnits="userSpaceOnUse" x="0" y="0" width="40" height="40">
<rect width="40" height="40" fill="#D9D9D9"/>
</mask>
<g mask="url(#mask0_3_24067)">
<rect x="17" y="14" width="7" height="7" fill="#38291E"/>
<path d="M20.0099 19.4229C20.7177 19.4229 21.3204 19.171 21.8179 18.6671C22.3154 18.1629 22.5641 17.5569 22.5641 16.8492C22.5641 16.1414 22.312 15.5388 21.8079 15.0413C21.304 14.5437 20.698 14.295 19.9899 14.295C19.2822 14.295 18.6795 14.5469 18.182 15.0508C17.6845 15.555 17.4358 16.161 17.4358 16.8687C17.4358 17.5765 17.6879 18.1792 18.192 18.6767C18.6959 19.1742 19.3019 19.4229 20.0099 19.4229ZM19.9999 35.0321C16.0833 31.5685 13.133 28.3382 11.1491 25.3413C9.16493 22.3446 8.17285 19.6176 8.17285 17.1604C8.17285 13.6346 9.32091 10.7264 11.617 8.43583C13.9129 6.14528 16.7072 5 19.9999 5C23.2927 5 26.087 6.14528 28.3829 8.43583C30.679 10.7264 31.827 13.6346 31.827 17.1604C31.827 19.6176 30.8349 22.3446 28.8508 25.3413C26.8669 28.3382 23.9166 31.5685 19.9999 35.0321Z" fill="#38291E"/>
</g>
</svg>

