<svg width="24" height="24" viewBox="0 0 24 24" fill="none" xmlns="http://www.w3.org/2000/svg">
<g clip-path="url(#clip0_3745_816)">
<path d="M12.4419 5.80806C12.1979 5.56398 11.8021 5.56398 11.5581 5.80806L7.58058 9.78553C7.3365 10.0296 7.3365 10.4253 7.58058 10.6694C7.82466 10.9135 8.22039 10.9135 8.46447 10.6694L12 7.13388L15.5355 10.6694C15.7796 10.9135 16.1753 10.9135 16.4194 10.6694C16.6635 10.4253 16.6635 10.0296 16.4194 9.78553L12.4419 5.80806ZM12 18.75L12.625 18.75L12.625 6.25L12 6.25L11.375 6.25L11.375 18.75L12 18.75Z" fill="#38291E"/>
</g>
<defs>
<clipPath id="clip0_3745_816">
<rect width="10" height="13.75" fill="white" transform="translate(7 5)"/>
</clipPath>
</defs>
</svg>
