<svg width="120" height="40" viewBox="0 0 120 40" fill="none" xmlns="http://www.w3.org/2000/svg">
<path fill-rule="evenodd" clip-rule="evenodd" d="M15.1788 8.97927C15.9177 10.48 15.7046 12.0623 15.122 13.6767H24.9685C24.2687 11.7693 24.5121 10.0679 25.5369 8.52639C26.4391 7.27257 28.5508 8.35946 27.4603 9.77135C27.1797 10.0075 26.8956 10.1034 26.6114 10.1123C26.2562 10.7925 26.1443 11.4709 26.6114 12.1494C29.3163 18.3084 30.7674 24.7551 27.011 29.5254C23.7199 33.088 15.4151 32.6102 13.1435 29.5254C9.87905 25.3856 11.0051 18.3084 13.5395 12.0357C13.8788 11.2933 13.8415 10.7055 13.5395 10.226C13.0973 10.2011 12.8255 10.0804 12.6906 9.88678C11.8469 8.42339 13.8415 6.99907 15.1806 8.98104M18.0738 15.4864H19.8002V29.8344H18.0738V15.4864ZM20.5781 15.4864H22.3062V29.8344H20.5781V15.4864ZM17.0011 29.2696C16.9815 24.693 16.9638 20.1181 16.9442 15.5432C16.0953 15.5432 15.2446 15.5432 14.3974 15.5432C11.8576 23.9915 12.9747 27.9909 16.3226 29.2696H17.0029H17.0011ZM23.2813 29.2696C23.299 24.693 23.3186 20.1181 23.3381 15.5432H25.885C28.4247 23.9915 27.3058 27.9909 23.9579 29.2696C23.7324 29.2696 23.5068 29.2696 23.2795 29.2696H23.2813ZM20.1945 37.9719C30.1209 37.9719 38.1665 29.925 38.1665 20.0009C38.1665 10.0768 30.1191 2.02815 20.1927 2.02815C10.2662 2.02815 2.22065 10.0733 2.22065 19.9973C2.22065 29.9214 10.268 37.9683 20.1927 37.9683L20.1945 37.9719ZM20.1945 36.0183C29.041 36.0183 36.2128 28.847 36.2128 20.0009C36.2128 11.1548 29.0393 3.97993 20.1927 3.97993C11.3461 3.97993 4.17432 11.1513 4.17432 19.9973C4.17432 28.8434 11.3461 36.0147 20.1927 36.0147L20.1945 36.0183ZM40.1947 20.0009C40.1947 31.0456 31.238 40 20.1945 40C9.15086 40 0.192383 31.0456 0.192383 20.0009C0.192383 8.95618 9.14554 0 20.1927 0C31.2398 0 40.193 8.9544 40.193 19.9991L40.1947 20.0009Z" fill="white"/>
<mask id="mask0_3_23950" style="mask-type:luminance" maskUnits="userSpaceOnUse" x="0" y="0" width="41" height="40">
<path d="M15.1788 8.97927C15.9177 10.48 15.7046 12.0623 15.122 13.6767H24.9685C24.2687 11.7693 24.5121 10.0679 25.5369 8.52639C26.4391 7.27257 28.5508 8.35946 27.4603 9.77135C27.1797 10.0075 26.8956 10.1034 26.6114 10.1123C26.2562 10.7925 26.1443 11.4709 26.6114 12.1494C29.3163 18.3084 30.7674 24.7551 27.011 29.5254C23.7199 33.088 15.4151 32.6102 13.1435 29.5254C9.87905 25.3856 11.0051 18.3084 13.5395 12.0357C13.8788 11.2933 13.8415 10.7055 13.5395 10.226C13.0973 10.2011 12.8255 10.0804 12.6906 9.88678C11.8469 8.42339 13.8415 6.99907 15.1806 8.98104M18.0738 15.4864H19.8002V29.8344H18.0738V15.4864ZM20.5781 15.4864H22.3062V29.8344H20.5781V15.4864ZM17.0011 29.2696C16.9815 24.693 16.9638 20.1181 16.9442 15.5432C16.0953 15.5432 15.2446 15.5432 14.3974 15.5432C11.8576 23.9915 12.9747 27.9909 16.3226 29.2696H17.0029H17.0011ZM23.2813 29.2696C23.299 24.693 23.3186 20.1181 23.3381 15.5432H25.885C28.4247 23.9915 27.3058 27.9909 23.9579 29.2696C23.7324 29.2696 23.5068 29.2696 23.2795 29.2696H23.2813ZM20.1945 37.9719C30.1209 37.9719 38.1665 29.925 38.1665 20.0009C38.1665 10.0768 30.1191 2.02815 20.1927 2.02815C10.2662 2.02815 2.22065 10.0733 2.22065 19.9973C2.22065 29.9214 10.268 37.9683 20.1927 37.9683L20.1945 37.9719ZM20.1945 36.0183C29.041 36.0183 36.2128 28.847 36.2128 20.0009C36.2128 11.1548 29.0393 3.97993 20.1927 3.97993C11.3461 3.97993 4.17432 11.1513 4.17432 19.9973C4.17432 28.8434 11.3461 36.0147 20.1927 36.0147L20.1945 36.0183ZM40.1947 20.0009C40.1947 31.0456 31.238 40 20.1945 40C9.15086 40 0.192383 31.0456 0.192383 20.0009C0.192383 8.95618 9.14554 0 20.1927 0C31.2398 0 40.193 8.9544 40.193 19.9991L40.1947 20.0009Z" fill="white"/>
</mask>
<g mask="url(#mask0_3_23950)">
<path d="M23.619 -19.7035L-19.5122 16.5757L16.7691 59.7044L59.9004 23.4252L23.619 -19.7035Z" fill="white"/>
</g>
<path fill-rule="evenodd" clip-rule="evenodd" d="M117.698 21.2437H114.84L113.136 17.3664H106.265L104.545 21.2437H101.711L109.695 4L117.698 21.2437ZM112.145 15.1255L109.687 9.52208L107.259 15.1255H112.145Z" fill="white"/>
<mask id="mask1_3_23950" style="mask-type:luminance" maskUnits="userSpaceOnUse" x="101" y="4" width="17" height="18">
<path d="M117.698 21.2437H114.84L113.136 17.3664H106.265L104.545 21.2437H101.711L109.695 4L117.698 21.2437ZM112.145 15.1255L109.687 9.52208L107.259 15.1255H112.145Z" fill="white"/>
</mask>
<g mask="url(#mask1_3_23950)">
<path d="M111.073 -3.9461L93.2954 11.1489L108.335 29.196L126.113 14.101L111.073 -3.9461Z" fill="white"/>
</g>
<path fill-rule="evenodd" clip-rule="evenodd" d="M100.59 12.5075C100.59 14.4159 99.9996 15.9337 98.8184 17.0586C97.6329 18.1877 96.018 18.7512 93.9611 18.7512H93.2341V21.2437H90.6423V18.7512H89.9381C87.875 18.7512 86.2517 18.1877 85.0643 17.0586C83.8788 15.9337 83.2861 14.4139 83.2861 12.5075C83.2861 10.601 83.8788 9.08327 85.0684 7.94599C86.26 6.81077 87.8791 6.2411 89.936 6.2411H90.6402V4.23389H93.232V6.2411H93.959C96.0159 6.2411 97.6329 6.80871 98.8163 7.94393C99.9976 9.0771 100.588 10.599 100.588 12.5075M97.951 12.5075C97.951 9.80101 96.557 8.44573 93.7607 8.44573H93.166V16.5239H93.7607C96.557 16.5239 97.951 15.183 97.951 12.5075ZM90.7063 16.5239V8.44573H90.1343C87.3256 8.44573 85.9213 9.79895 85.9213 12.5075C85.9213 15.2159 87.3256 16.5239 90.1343 16.5239H90.7063Z" fill="white"/>
<mask id="mask2_3_23950" style="mask-type:luminance" maskUnits="userSpaceOnUse" x="83" y="4" width="18" height="18">
<path d="M100.59 12.5075C100.59 14.4159 99.9996 15.9337 98.8184 17.0586C97.6329 18.1877 96.018 18.7512 93.9611 18.7512H93.2341V21.2437H90.6423V18.7512H89.9381C87.875 18.7512 86.2517 18.1877 85.0643 17.0586C83.8788 15.9337 83.2861 14.4139 83.2861 12.5075C83.2861 10.601 83.8788 9.08327 85.0684 7.94599C86.26 6.81077 87.8791 6.2411 89.936 6.2411H90.6402V4.23389H93.232V6.2411H93.959C96.0159 6.2411 97.6329 6.80871 98.8163 7.94393C99.9976 9.0771 100.588 10.599 100.588 12.5075M97.951 12.5075C97.951 9.80101 96.557 8.44573 93.7607 8.44573H93.166V16.5239H93.7607C96.557 16.5239 97.951 15.183 97.951 12.5075ZM90.7063 16.5239V8.44573H90.1343C87.3256 8.44573 85.9213 9.79895 85.9213 12.5075C85.9213 15.2159 87.3256 16.5239 90.1343 16.5239H90.7063Z" fill="white"/>
</mask>
<g mask="url(#mask2_3_23950)">
<path d="M93.3121 -4.2704L74.8535 11.3901L90.5636 29.7529L109.022 14.0924L93.3121 -4.2704Z" fill="white"/>
</g>
<path fill-rule="evenodd" clip-rule="evenodd" d="M80.5584 9.34425C80.5584 11.0055 80.0338 12.2846 78.9806 13.1813C77.9315 14.076 76.4528 14.5274 74.5528 14.5274H72.9688V21.2437H70.2944V4.42139H74.0324C78.3837 4.42139 80.5584 6.06031 80.5584 9.34425ZM77.886 9.41745C77.886 7.58942 76.5416 6.6744 73.8569 6.6744H72.9688V12.2744H74.0118C76.5932 12.2744 77.886 11.3227 77.886 9.41745Z" fill="white"/>
<mask id="mask3_3_23950" style="mask-type:luminance" maskUnits="userSpaceOnUse" x="70" y="4" width="11" height="18">
<path d="M80.5584 9.34425C80.5584 11.0055 80.0338 12.2846 78.9806 13.1813C77.9315 14.076 76.4528 14.5274 74.5528 14.5274H72.9688V21.2437H70.2944V4.42139H74.0324C78.3837 4.42139 80.5584 6.06031 80.5584 9.34425ZM77.886 9.41745C77.886 7.58942 76.5416 6.6744 73.8569 6.6744H72.9688V12.2744H74.0118C76.5932 12.2744 77.886 11.3227 77.886 9.41745Z" fill="white"/>
</mask>
<g mask="url(#mask3_3_23950)">
<path d="M76.3039 -0.555824L61.8765 11.3936L74.5457 26.223L88.9731 14.2736L76.3039 -0.555824Z" fill="white"/>
</g>
<path fill-rule="evenodd" clip-rule="evenodd" d="M67.4876 21.2437H64.6293L62.9256 17.3664H56.0568L54.3323 21.2437H51.501L59.485 4L67.4876 21.2437ZM61.9322 15.1255L59.4746 9.52208L57.046 15.1255H61.9322Z" fill="white"/>
<mask id="mask4_3_23950" style="mask-type:luminance" maskUnits="userSpaceOnUse" x="51" y="4" width="17" height="18">
<path d="M67.4876 21.2437H64.6293L62.9256 17.3664H56.0568L54.3323 21.2437H51.501L59.485 4L67.4876 21.2437ZM61.9322 15.1255L59.4746 9.52208L57.046 15.1255H61.9322Z" fill="white"/>
</mask>
<g mask="url(#mask4_3_23950)">
<path d="M60.8599 -3.94806L43.082 11.147L58.1229 29.1956L75.9008 14.1006L60.8599 -3.94806Z" fill="white"/>
</g>
<path fill-rule="evenodd" clip-rule="evenodd" d="M67.9558 34.0671H66.8096L66.126 32.5326H63.3773L62.6875 34.0671H61.5537L64.7485 27.2437L67.9558 34.0671ZM65.7295 31.6454L64.7444 29.4294L63.7717 31.6454H65.7295Z" fill="white"/>
<mask id="mask5_3_23950" style="mask-type:luminance" maskUnits="userSpaceOnUse" x="61" y="27" width="7" height="8">
<path d="M67.9558 34.0671H66.8096L66.126 32.5326H63.3773L62.6875 34.0671H61.5537L64.7485 27.2437L67.9558 34.0671ZM65.7295 31.6454L64.7444 29.4294L63.7717 31.6454H65.7295Z" fill="white"/>
</mask>
<g mask="url(#mask5_3_23950)">
<path d="M65.2988 24.1666L58.1064 30.0737L64.2031 37.1502L71.3955 31.243L65.2988 24.1666Z" fill="white"/>
</g>
<path fill-rule="evenodd" clip-rule="evenodd" d="M75.7397 29.401C75.7397 30.0745 75.5394 30.5927 75.1387 30.9576C74.7381 31.3206 74.1743 31.5041 73.4473 31.5041H72.8464V34.2282H71.8262V27.4048H73.2532C74.9116 27.4048 75.7397 28.0702 75.7397 29.403M74.7216 29.4333C74.7216 28.6912 74.2073 28.3202 73.183 28.3202H72.8443V30.5907H73.2408C74.2259 30.5907 74.7195 30.2055 74.7195 29.4333H74.7216Z" fill="white"/>
<mask id="mask6_3_23950" style="mask-type:luminance" maskUnits="userSpaceOnUse" x="71" y="27" width="5" height="8">
<path d="M75.7397 29.401C75.7397 30.0745 75.5394 30.5927 75.1387 30.9576C74.7381 31.3206 74.1743 31.5041 73.4473 31.5041H72.8464V34.2282H71.8262V27.4048H73.2532C74.9116 27.4048 75.7397 28.0702 75.7397 29.403M74.7216 29.4333C74.7216 28.6912 74.2073 28.3202 73.183 28.3202H72.8443V30.5907H73.2408C74.2259 30.5907 74.7195 30.2055 74.7195 29.4333H74.7216Z" fill="white"/>
</mask>
<g mask="url(#mask6_3_23950)">
<path d="M74.1132 25.524L68.3779 30.2344L73.443 36.1134L79.1782 31.403L74.1132 25.524Z" fill="white"/>
</g>
<path fill-rule="evenodd" clip-rule="evenodd" d="M85.0122 34.2263H83.6636L81.0202 30.8609V34.2263H80V27.4028H81.0202V30.4274L83.6223 27.4028H84.9131L82.0363 30.6129L85.0122 34.2263Z" fill="white"/>
<mask id="mask7_3_23950" style="mask-type:luminance" maskUnits="userSpaceOnUse" x="80" y="27" width="6" height="8">
<path d="M85.0122 34.2263H83.6636L81.0202 30.8609V34.2263H80V27.4028H81.0202V30.4274L83.6223 27.4028H84.9131L82.0363 30.6129L85.0122 34.2263Z" fill="white"/>
</mask>
<g mask="url(#mask7_3_23950)">
<path d="M82.9337 24.9942L76.5552 30.2329L82.0749 36.6397L88.4533 31.401L82.9337 24.9942Z" fill="white"/>
</g>
<path fill-rule="evenodd" clip-rule="evenodd" d="M57.5906 34.2263H56.5766V28.3626H53.675V34.2263H52.6548V27.4028H57.5906V34.2263Z" fill="white"/>
<mask id="mask8_3_23950" style="mask-type:luminance" maskUnits="userSpaceOnUse" x="52" y="27" width="6" height="8">
<path d="M57.5906 34.2263H56.5766V28.3626H53.675V34.2263H52.6548V27.4028H57.5906V34.2263Z" fill="white"/>
</mask>
<g mask="url(#mask8_3_23950)">
<path d="M55.5407 25.0314L49.208 30.2324L54.6958 36.6021L61.0284 31.4011L55.5407 25.0314Z" fill="white"/>
</g>
</svg>

