<svg width="40" height="47" viewBox="0 0 40 47" fill="none" xmlns="http://www.w3.org/2000/svg">
<g filter="url(#filter0_d_3_24763)">
<path d="M19.9972 21.676C18.3872 21.676 17.0712 20.36 17.0712 18.75C17.0712 17.14 18.3872 15.824 19.9972 15.824C21.6072 15.824 22.9232 17.14 22.9232 18.75C22.9232 20.36 21.6072 21.676 19.9972 21.676Z" fill="#38291E"/>
<mask id="mask0_3_24763" style="mask-type:alpha" maskUnits="userSpaceOnUse" x="0" y="1" width="40" height="40">
<rect y="1" width="40" height="40" fill="#D9D9D9"/>
</mask>
<g mask="url(#mask0_3_24763)">
<rect x="17" y="15" width="7" height="7" fill="#E6DCD6"/>
<path d="M20.0099 20.4229C20.7177 20.4229 21.3204 20.171 21.8179 19.6671C22.3154 19.1629 22.5641 18.5569 22.5641 17.8492C22.5641 17.1414 22.312 16.5388 21.8079 16.0413C21.304 15.5437 20.698 15.295 19.9899 15.295C19.2822 15.295 18.6795 15.5469 18.182 16.0508C17.6845 16.555 17.4358 17.161 17.4358 17.8687C17.4358 18.5765 17.6879 19.1792 18.192 19.6767C18.6959 20.1742 19.3019 20.4229 20.0099 20.4229ZM19.9999 36.0321C16.0833 32.5685 13.133 29.3382 11.1491 26.3413C9.16493 23.3446 8.17285 20.6176 8.17285 18.1604C8.17285 14.6346 9.32091 11.7264 11.617 9.43583C13.9129 7.14528 16.7072 6 19.9999 6C23.2927 6 26.087 7.14528 28.3829 9.43583C30.679 11.7264 31.827 14.6346 31.827 18.1604C31.827 20.6176 30.8349 23.3446 28.8508 26.3413C26.8669 29.3382 23.9166 32.5685 19.9999 36.0321Z" fill="#E6DCD6"/>
</g>
</g>
<defs>
<filter id="filter0_d_3_24763" x="-8" y="-5" width="56" height="56" filterUnits="userSpaceOnUse" color-interpolation-filters="sRGB">
<feFlood flood-opacity="0" result="BackgroundImageFix"/>
<feColorMatrix in="SourceAlpha" type="matrix" values="0 0 0 0 0 0 0 0 0 0 0 0 0 0 0 0 0 0 127 0" result="hardAlpha"/>
<feOffset dy="2"/>
<feGaussianBlur stdDeviation="4"/>
<feColorMatrix type="matrix" values="0 0 0 0 0.219608 0 0 0 0 0.160784 0 0 0 0 0.117647 0 0 0 0.64 0"/>
<feBlend mode="normal" in2="BackgroundImageFix" result="effect1_dropShadow_3_24763"/>
<feBlend mode="normal" in="SourceGraphic" in2="effect1_dropShadow_3_24763" result="shape"/>
</filter>
</defs>
</svg>

