<svg width="44" height="44" viewBox="0 0 44 44" fill="none" xmlns="http://www.w3.org/2000/svg">
<g filter="url(#filter0_d_3_24069)">
<rect x="2" y="1" width="40.0019" height="40" rx="20" fill="white" shape-rendering="crispEdges"/>
<mask id="mask0_3_24069" style="mask-type:luminance" maskUnits="userSpaceOnUse" x="6" y="5" width="33" height="32">
<path d="M17.9892 12.1834C18.5802 13.384 18.4097 14.6499 17.9437 15.9413H25.8209C25.2611 14.4154 25.4557 13.0543 26.2756 11.8211C26.9974 10.8181 28.6868 11.6876 27.8144 12.8171C27.5899 13.006 27.3625 13.0828 27.1352 13.0899C26.851 13.634 26.7615 14.1768 27.1352 14.7195C29.2992 19.6467 30.46 24.8041 27.4549 28.6203C24.822 31.4704 18.1781 31.0882 16.3609 28.6203C13.7493 25.3085 14.6502 19.6467 16.6777 14.6286C16.9491 14.0347 16.9193 13.5644 16.6777 13.1808C16.3239 13.1609 16.1065 13.0643 15.9985 12.9094C15.3236 11.7387 16.9193 10.5993 17.9906 12.1848M20.3052 17.3891H21.6862V28.8675H20.3052V17.3891ZM22.3086 17.3891H23.691V28.8675H22.3086V17.3891ZM19.447 28.4157C19.4313 24.7544 19.4171 21.0945 19.4015 17.4346C18.7223 17.4346 18.0417 17.4346 17.364 17.4346C15.3322 24.1932 16.2259 27.3928 18.9042 28.4157H19.4484H19.447ZM24.4711 28.4157C24.4853 24.7544 24.5009 21.0945 24.5166 17.4346H26.5541C28.5859 24.1932 27.6908 27.3928 25.0124 28.4157C24.832 28.4157 24.6515 28.4157 24.4697 28.4157H24.4711ZM22.0017 35.3775C29.9428 35.3775 36.3793 28.94 36.3793 21.0007C36.3793 13.0614 29.9414 6.62252 22.0002 6.62252C14.0591 6.62252 7.62261 13.0586 7.62261 20.9979C7.62261 28.9371 14.0605 35.3746 22.0002 35.3746L22.0017 35.3775ZM22.0017 33.8146C29.0789 33.8146 34.8163 28.0776 34.8163 21.0007C34.8163 13.9239 29.0775 8.18395 22.0002 8.18395C14.923 8.18395 9.18555 13.921 9.18555 20.9979C9.18555 28.0747 14.923 33.8118 22.0002 33.8118L22.0017 33.8146ZM38.0019 21.0007C38.0019 29.8365 30.8365 37 22.0017 37C13.1668 37 6 29.8365 6 21.0007C6 12.1649 13.1625 5 22.0002 5C30.8379 5 38.0005 12.1635 38.0005 20.9993L38.0019 21.0007Z" fill="white"/>
</mask>
<g mask="url(#mask0_3_24069)">
<path d="M24.7413 -10.7631L-9.76367 18.2603L19.2614 52.7633L53.7664 23.7399L24.7413 -10.7631Z" fill="#38291E"/>
</g>
</g>
<defs>
<filter id="filter0_d_3_24069" x="0" y="0" width="44.002" height="44" filterUnits="userSpaceOnUse" color-interpolation-filters="sRGB">
<feFlood flood-opacity="0" result="BackgroundImageFix"/>
<feColorMatrix in="SourceAlpha" type="matrix" values="0 0 0 0 0 0 0 0 0 0 0 0 0 0 0 0 0 0 127 0" result="hardAlpha"/>
<feOffset dy="1"/>
<feGaussianBlur stdDeviation="1"/>
<feComposite in2="hardAlpha" operator="out"/>
<feColorMatrix type="matrix" values="0 0 0 0 0.235294 0 0 0 0 0.156863 0 0 0 0 0.0431373 0 0 0 0.25 0"/>
<feBlend mode="normal" in2="BackgroundImageFix" result="effect1_dropShadow_3_24069"/>
<feBlend mode="normal" in="SourceGraphic" in2="effect1_dropShadow_3_24069" result="shape"/>
</filter>
</defs>
</svg>

